<svg version="1.1" xmlns="http://www.w3.org/2000/svg" viewBox="0 0 462.94006359278865 852.8946525608203" width="462.94006359278865" height="852.8946525608203">
  <!-- svg-source:excalidraw -->
  
  <defs>
    <style class="style-fonts">
      @font-face {
        font-family: "Virgil";
        src: url("https://excalidraw.com/Virgil.woff2");
      }
      @font-face {
        font-family: "Cascadia";
        src: url("https://excalidraw.com/Cascadia.woff2");
      }
      @font-face {
        font-family: "Assistant";
        src: url("https://excalidraw.com/Assistant-Regular.woff2");
      }
    </style>
    
  </defs>
  <rect x="0" y="0" width="462.94006359278865" height="852.8946525608203" fill="#ffffff"></rect><g transform="translate(97.09375927669726 10) rotate(0 177.9231521580457 34.72361683482177)"><text x="0" y="55.55896640639539" font-family="Helvetica, Segoe UI Emoji" font-size="60.388898843168334px" fill="#4e588d" text-anchor="start" style="white-space: pre;" direction="ltr" dominant-baseline="alphabetic">Pago Exitoso</text></g><g stroke-linecap="round" transform="translate(146.89281775238715 147.49895785844092) rotate(0 125.05794762265532 120.46022896005775)"><path d="M250.12 120.46 C250.12 123.96, 249.96 127.47, 249.64 130.96 C249.32 134.45, 248.85 137.93, 248.22 141.38 C247.59 144.82, 246.79 148.26, 245.85 151.64 C244.91 155.02, 243.82 158.37, 242.57 161.66 C241.33 164.95, 239.93 168.2, 238.4 171.37 C236.86 174.54, 235.18 177.66, 233.36 180.69 C231.54 183.72, 229.58 186.69, 227.5 189.55 C225.42 192.42, 223.19 195.21, 220.86 197.89 C218.52 200.57, 216.06 203.16, 213.49 205.64 C210.92 208.11, 208.23 210.49, 205.44 212.74 C202.66 214.99, 199.76 217.13, 196.79 219.14 C193.81 221.14, 190.73 223.03, 187.59 224.78 C184.44 226.53, 181.2 228.16, 177.91 229.63 C174.62 231.11, 171.24 232.46, 167.83 233.66 C164.42 234.85, 160.93 235.91, 157.43 236.82 C153.92 237.72, 150.35 238.48, 146.77 239.09 C143.2 239.7, 139.58 240.16, 135.96 240.46 C132.34 240.77, 128.69 240.92, 125.06 240.92 C121.42 240.92, 117.78 240.77, 114.16 240.46 C110.54 240.16, 106.92 239.7, 103.34 239.09 C99.76 238.48, 96.2 237.72, 92.69 236.82 C89.18 235.91, 85.7 234.85, 82.29 233.66 C78.87 232.46, 75.5 231.11, 72.21 229.63 C68.91 228.16, 65.68 226.53, 62.53 224.78 C59.38 223.03, 56.3 221.14, 53.33 219.14 C50.35 217.13, 47.46 214.99, 44.67 212.74 C41.89 210.49, 39.2 208.11, 36.63 205.64 C34.06 203.16, 31.59 200.57, 29.26 197.89 C26.92 195.21, 24.7 192.42, 22.62 189.55 C20.53 186.69, 18.57 183.72, 16.75 180.69 C14.94 177.66, 13.25 174.54, 11.72 171.37 C10.18 168.2, 8.78 164.95, 7.54 161.66 C6.3 158.37, 5.2 155.02, 4.26 151.64 C3.32 148.26, 2.53 144.82, 1.9 141.38 C1.27 137.93, 0.79 134.45, 0.48 130.96 C0.16 127.47, 0 123.96, 0 120.46 C0 116.96, 0.16 113.45, 0.48 109.96 C0.79 106.48, 1.27 102.99, 1.9 99.54 C2.53 96.1, 3.32 92.66, 4.26 89.28 C5.2 85.9, 6.3 82.55, 7.54 79.26 C8.78 75.97, 10.18 72.72, 11.72 69.55 C13.25 66.38, 14.94 63.26, 16.75 60.23 C18.57 57.2, 20.53 54.23, 22.62 51.37 C24.7 48.5, 26.92 45.71, 29.26 43.03 C31.59 40.35, 34.06 37.76, 36.63 35.28 C39.2 32.81, 41.89 30.43, 44.67 28.18 C47.46 25.93, 50.35 23.79, 53.33 21.78 C56.3 19.78, 59.38 17.89, 62.53 16.14 C65.68 14.39, 68.91 12.77, 72.21 11.29 C75.5 9.81, 78.87 8.46, 82.29 7.26 C85.7 6.07, 89.18 5.01, 92.69 4.1 C96.2 3.2, 99.76 2.44, 103.34 1.83 C106.92 1.22, 110.54 0.76, 114.16 0.46 C117.78 0.15, 121.42 0, 125.06 0 C128.69 0, 132.34 0.15, 135.96 0.46 C139.58 0.76, 143.2 1.22, 146.77 1.83 C150.35 2.44, 153.92 3.2, 157.43 4.1 C160.93 5.01, 164.42 6.07, 167.83 7.26 C171.24 8.46, 174.62 9.81, 177.91 11.29 C181.2 12.77, 184.44 14.39, 187.59 16.14 C190.73 17.89, 193.81 19.78, 196.79 21.78 C199.76 23.79, 202.66 25.93, 205.44 28.18 C208.23 30.43, 210.92 32.81, 213.49 35.28 C216.06 37.76, 218.52 40.35, 220.86 43.03 C223.19 45.71, 225.42 48.5, 227.5 51.37 C229.58 54.23, 231.54 57.2, 233.36 60.23 C235.18 63.26, 236.86 66.38, 238.4 69.55 C239.93 72.72, 241.33 75.97, 242.57 79.26 C243.82 82.55, 244.91 85.9, 245.85 89.28 C246.79 92.66, 247.59 96.1, 248.22 99.54 C248.85 102.99, 249.32 106.48, 249.64 109.96 C249.96 113.45, 250.04 118.71, 250.12 120.46 C250.2 122.21, 250.2 118.71, 250.12 120.46" stroke="none" stroke-width="0" fill="#566e3d"></path><path d="M250.12 120.46 C250.12 123.96, 249.96 127.47, 249.64 130.96 C249.32 134.45, 248.85 137.93, 248.22 141.38 C247.59 144.82, 246.79 148.26, 245.85 151.64 C244.91 155.02, 243.82 158.37, 242.57 161.66 C241.33 164.95, 239.93 168.2, 238.4 171.37 C236.86 174.54, 235.18 177.66, 233.36 180.69 C231.54 183.72, 229.58 186.69, 227.5 189.55 C225.42 192.42, 223.19 195.21, 220.86 197.89 C218.52 200.57, 216.06 203.16, 213.49 205.64 C210.92 208.11, 208.23 210.49, 205.44 212.74 C202.66 214.99, 199.76 217.13, 196.79 219.14 C193.81 221.14, 190.73 223.03, 187.59 224.78 C184.44 226.53, 181.2 228.16, 177.91 229.63 C174.62 231.11, 171.24 232.46, 167.83 233.66 C164.42 234.85, 160.93 235.91, 157.43 236.82 C153.92 237.72, 150.35 238.48, 146.77 239.09 C143.2 239.7, 139.58 240.16, 135.96 240.46 C132.34 240.77, 128.69 240.92, 125.06 240.92 C121.42 240.92, 117.78 240.77, 114.16 240.46 C110.54 240.16, 106.92 239.7, 103.34 239.09 C99.76 238.48, 96.2 237.72, 92.69 236.82 C89.18 235.91, 85.7 234.85, 82.29 233.66 C78.87 232.46, 75.5 231.11, 72.21 229.63 C68.91 228.16, 65.68 226.53, 62.53 224.78 C59.38 223.03, 56.3 221.14, 53.33 219.14 C50.35 217.13, 47.46 214.99, 44.67 212.74 C41.89 210.49, 39.2 208.11, 36.63 205.64 C34.06 203.16, 31.59 200.57, 29.26 197.89 C26.92 195.21, 24.7 192.42, 22.62 189.55 C20.53 186.69, 18.57 183.72, 16.75 180.69 C14.94 177.66, 13.25 174.54, 11.72 171.37 C10.18 168.2, 8.78 164.95, 7.54 161.66 C6.3 158.37, 5.2 155.02, 4.26 151.64 C3.32 148.26, 2.53 144.82, 1.9 141.38 C1.27 137.93, 0.79 134.45, 0.48 130.96 C0.16 127.47, 0 123.96, 0 120.46 C0 116.96, 0.16 113.45, 0.48 109.96 C0.79 106.48, 1.27 102.99, 1.9 99.54 C2.53 96.1, 3.32 92.66, 4.26 89.28 C5.2 85.9, 6.3 82.55, 7.54 79.26 C8.78 75.97, 10.18 72.72, 11.72 69.55 C13.25 66.38, 14.94 63.26, 16.75 60.23 C18.57 57.2, 20.53 54.23, 22.62 51.37 C24.7 48.5, 26.92 45.71, 29.26 43.03 C31.59 40.35, 34.06 37.76, 36.63 35.28 C39.2 32.81, 41.89 30.43, 44.67 28.18 C47.46 25.93, 50.35 23.79, 53.33 21.78 C56.3 19.78, 59.38 17.89, 62.53 16.14 C65.68 14.39, 68.91 12.77, 72.21 11.29 C75.5 9.81, 78.87 8.46, 82.29 7.26 C85.7 6.07, 89.18 5.01, 92.69 4.1 C96.2 3.2, 99.76 2.44, 103.34 1.83 C106.92 1.22, 110.54 0.76, 114.16 0.46 C117.78 0.15, 121.42 0, 125.06 0 C128.69 0, 132.34 0.15, 135.96 0.46 C139.58 0.76, 143.2 1.22, 146.77 1.83 C150.35 2.44, 153.92 3.2, 157.43 4.1 C160.93 5.01, 164.42 6.07, 167.83 7.26 C171.24 8.46, 174.62 9.81, 177.91 11.29 C181.2 12.77, 184.44 14.39, 187.59 16.14 C190.73 17.89, 193.81 19.78, 196.79 21.78 C199.76 23.79, 202.66 25.93, 205.44 28.18 C208.23 30.43, 210.92 32.81, 213.49 35.28 C216.06 37.76, 218.52 40.35, 220.86 43.03 C223.19 45.71, 225.42 48.5, 227.5 51.37 C229.58 54.23, 231.54 57.2, 233.36 60.23 C235.18 63.26, 236.86 66.38, 238.4 69.55 C239.93 72.72, 241.33 75.97, 242.57 79.26 C243.82 82.55, 244.91 85.9, 245.85 89.28 C246.79 92.66, 247.59 96.1, 248.22 99.54 C248.85 102.99, 249.32 106.48, 249.64 109.96 C249.96 113.45, 250.04 118.71, 250.12 120.46 C250.2 122.21, 250.2 118.71, 250.12 120.46" stroke="#f5f5f5" stroke-width="4" fill="none"></path></g><g transform="translate(253.0107003822909 247.08094205755788) rotate(0 19.0107421875 20.700000000000045)"><text x="19.0107421875" y="33.120703125" font-family="Helvetica, Segoe UI Emoji" font-size="36px" fill="#f5f5f5" text-anchor="middle" style="white-space: pre;" direction="ltr" dominant-baseline="alphabetic">ok</text></g><g transform="translate(126.61417178610054 475.9478993470675) rotate(0 147.076171875 20.700000000000045)"><text x="0" y="33.120703125" font-family="Helvetica, Segoe UI Emoji" font-size="36px" fill="#4e588d" text-anchor="start" style="white-space: pre;" direction="ltr" dominant-baseline="alphabetic">Credito Disponible</text></g><g transform="translate(160.81878078548198 566.4895114042529) rotate(0 115.06640625 20.700000000000045)"><text x="0" y="33.120703125" font-family="Helvetica, Segoe UI Emoji" font-size="36px" fill="#4e588d" text-anchor="start" style="white-space: pre;" direction="ltr" dominant-baseline="alphabetic">5,000.00 MXN</text></g><g transform="translate(10 819.8946525608203) rotate(0 214.033203125 11.5)"><text x="214.033203125" y="18.400390625" font-family="Helvetica, Segoe UI Emoji" font-size="20px" fill="#4e588d" text-anchor="middle" style="white-space: pre;" direction="ltr" dominant-baseline="alphabetic">puede recojer su pedido el dia y hora acordados</text></g></svg>