<svg version="1.1" xmlns="http://www.w3.org/2000/svg" viewBox="0 0 523.4347694821051 701.9579526627208" width="523.4347694821051" height="701.9579526627208">
  <!-- svg-source:excalidraw -->
  
  <defs>
    <style class="style-fonts">
      @font-face {
        font-family: "Virgil";
        src: url("https://excalidraw.com/Virgil.woff2");
      }
      @font-face {
        font-family: "Cascadia";
        src: url("https://excalidraw.com/Cascadia.woff2");
      }
      @font-face {
        font-family: "Assistant";
        src: url("https://excalidraw.com/Assistant-Regular.woff2");
      }
    </style>
    
  </defs>
  <rect x="0" y="0" width="523.4347694821051" height="701.9579526627208" fill="#ffffff"></rect><g stroke-linecap="round" transform="translate(10 10) rotate(0 251.71738474105257 340.9789763313604)"><path d="M32 0 C143.97 -2.02, 254.17 -1.9, 471.43 0 C496.26 0.61, 500.16 15.43, 503.43 32 C503.09 162, 502.91 288.29, 503.43 649.96 C502.14 669.92, 495 682.3, 471.43 681.96 C341.54 679.65, 210.46 680.33, 32 681.96 C13.54 684.22, -2.52 673.82, 0 649.96 C7.88 477.55, 4.97 307.38, 0 32 C3.47 13, 14.15 3.72, 32 0" stroke="none" stroke-width="0" fill="#f5f5f5"></path><path d="M32 0 C140.78 -2.58, 253.27 -3.05, 471.43 0 M32 0 C187.94 1.03, 346.2 -0.46, 471.43 0 M471.43 0 C491.75 3.07, 503.03 7.9, 503.43 32 M471.43 0 C496.99 0.49, 501.09 14.79, 503.43 32 M503.43 32 C501.75 248.51, 502.79 465.05, 503.43 649.96 M503.43 32 C508.61 229.37, 508.7 425.28, 503.43 649.96 M503.43 649.96 C507.37 673, 490.12 683.41, 471.43 681.96 M503.43 649.96 C502.24 666.97, 495.19 685.7, 471.43 681.96 M471.43 681.96 C370.68 684.4, 268.28 682.47, 32 681.96 M471.43 681.96 C352.37 682.38, 232.4 682.21, 32 681.96 M32 681.96 C14.11 680.18, 2.73 667.86, 0 649.96 M32 681.96 C12.35 685.45, -1.9 673.99, 0 649.96 M0 649.96 C5.93 440.98, 5.51 234.03, 0 32 M0 649.96 C0.74 424.99, 1.6 199.33, 0 32 M0 32 C2.58 10.39, 14.65 0.37, 32 0 M0 32 C0.99 14.21, 6.14 -3.1, 32 0" stroke="#4e588d" stroke-width="4" fill="none"></path></g><g stroke-linecap="round" transform="translate(332.7814124985973 96.33030172308554) rotate(0 84.86039545593098 247.8359006217254)"><path d="M0 0 L169.72 0 L169.72 495.67 L0 495.67" stroke="none" stroke-width="0" fill="#f5f5f5"></path><path d="M0 0 C67.1 0, 134.2 0, 169.72 0 M0 0 C42.34 0, 84.67 0, 169.72 0 M169.72 0 C169.72 148.58, 169.72 297.16, 169.72 495.67 M169.72 0 C169.72 153.61, 169.72 307.22, 169.72 495.67 M169.72 495.67 C103.63 495.67, 37.53 495.67, 0 495.67 M169.72 495.67 C108.63 495.67, 47.54 495.67, 0 495.67 M0 495.67 C0 385.74, 0 275.8, 0 0 M0 495.67 C0 383.89, 0 272.11, 0 0" stroke="#4e598c" stroke-width="4" fill="none"></path></g><g transform="translate(35.4107831161532 34.14901079451647) rotate(0 59.2660446132777 15.9250870819385)"><text x="0" y="25.4806802647662" font-family="Helvetica, Segoe UI Emoji" font-size="27.695803620762753px" fill="#4e598c" text-anchor="start" style="white-space: pre;" direction="ltr" dominant-baseline="alphabetic">Resumen</text></g><g stroke-linecap="round"><g transform="translate(35.410783116153425 70.77500596028858) rotate(0 57.991159012472735 0)"><path d="M0 0 C32.74 0, 65.47 0, 115.98 0 M0 0 C35.52 0, 71.05 0, 115.98 0" stroke="#4e598c" stroke-width="4" fill="none"></path></g></g><mask></mask><g stroke-linecap="round" transform="translate(32.96905010510204 95.19233607080378) rotate(0 148.9457136741405 247.8359006217256)"><path d="M0 0 L297.89 0 L297.89 495.67 L0 495.67" stroke="none" stroke-width="0" fill="#f5f5f5"></path><path d="M0 0 C69.98 0, 139.96 0, 297.89 0 M0 0 C66 0, 132 0, 297.89 0 M297.89 0 C297.89 130.19, 297.89 260.37, 297.89 495.67 M297.89 0 C297.89 100.42, 297.89 200.84, 297.89 495.67 M297.89 495.67 C219.87 495.67, 141.85 495.67, 0 495.67 M297.89 495.67 C191.12 495.67, 84.34 495.67, 0 495.67 M0 495.67 C0 393.81, 0 291.95, 0 0 M0 495.67 C0 384.05, 0 272.42, 0 0" stroke="#4e598c" stroke-width="4" fill="none"></path></g><g transform="translate(28.607278648674992 637.4746198065945) rotate(0 109.1802603661879 9.337101216019619)"><text x="0" y="14.939679102602389" font-family="Helvetica, Segoe UI Emoji" font-size="16.238436897425803px" fill="#4e598c" text-anchor="start" style="white-space: pre;" direction="ltr" dominant-baseline="alphabetic">Pago en la entrega: 0.00 MXN</text></g><g stroke-linecap="round"><g transform="translate(264.67261808767466 624.4262735677707) rotate(0 0 23.196463604989276)"><path d="M0 0 C0 16.77, 0 33.54, 0 46.39 M0 0 C0 10.47, 0 20.94, 0 46.39" stroke="#4e598c" stroke-width="4" fill="none"></path></g></g><mask></mask><g transform="translate(49.396728834419946 112.23064463806122) rotate(0 62.336273193359375 15.9250870819385)"><text x="0" y="25.4806802647662" font-family="Helvetica, Segoe UI Emoji" font-size="27.695803620762753px" fill="#4e598c" text-anchor="start" style="white-space: pre;" direction="ltr" dominant-baseline="alphabetic">Productos</text></g><g stroke-linecap="round"><g transform="translate(57.38638021561724 150.1313288194624) rotate(0 119.03448428875981 0)"><path d="M0 0 C57.18 0, 114.36 0, 238.07 0 M0 0 C78.54 0, 157.09 0, 238.07 0" stroke="#4e588d" stroke-width="4" fill="none"></path></g></g><mask></mask><g transform="translate(58.15368239789291 321.8577877131247) rotate(0 32.33428955078125 15.9250870819385)"><text x="0" y="25.4806802647662" font-family="Helvetica, Segoe UI Emoji" font-size="27.695803620762753px" fill="#4e598c" text-anchor="start" style="white-space: pre;" direction="ltr" dominant-baseline="alphabetic">Pago</text></g><g stroke-linecap="round"><g transform="translate(66.1433337790902 359.7584718945254) rotate(0 119.03448428875981 0)"><path d="M0 0 C71.03 0, 142.07 0, 238.07 0 M0 0 C94.84 0, 189.68 0, 238.07 0" stroke="#4e588d" stroke-width="4" fill="none"></path></g></g><mask></mask><g stroke-linecap="round"><g transform="translate(360.5577758701363 360.2308770610166) rotate(0 54.269440865681645 0.5712572722704863)"><path d="M0 0 C30.07 0.32, 60.13 0.63, 108.54 1.14 M0 0 C33.64 0.35, 67.28 0.71, 108.54 1.14" stroke="#4e588d" stroke-width="4" fill="none"></path></g></g><mask></mask><g transform="translate(66.93153792318617 180.85609356813666) rotate(0 73.82421874999989 9.200000000000045)"><text x="0" y="14.720312499999999" font-family="Helvetica, Segoe UI Emoji" font-size="16px" fill="#4e588d" text-anchor="start" style="white-space: pre;" direction="ltr" dominant-baseline="alphabetic">5kg de Lomo de Res</text></g><g stroke-linecap="round"><g transform="translate(65.78902337864542 212.8465008152748) rotate(0 102.82630900866002 -0.5712572722702589)"><path d="M0 0 C56.45 -0.31, 112.9 -0.63, 205.65 -1.14 M0 0 C54.14 -0.3, 108.29 -0.6, 205.65 -1.14" stroke="#4e588d" stroke-width="4" fill="none"></path></g></g><mask></mask><g stroke-linecap="round"><g transform="translate(366.2703485928412 220.2728453547893) rotate(0 46.84309632616737 0)"><path d="M0 0 C30.43 0, 60.87 0, 93.69 0 M0 0 C32.31 0, 64.61 0, 93.69 0" stroke="#4e588d" stroke-width="4" fill="none"></path></g></g><mask></mask><g transform="translate(377.69549403824726 180.8560935681362) rotate(0 31.140625 9.200000000000045)"><text x="0" y="14.720312499999999" font-family="Helvetica, Segoe UI Emoji" font-size="16px" fill="#4e588d" text-anchor="start" style="white-space: pre;" direction="ltr" dominant-baseline="alphabetic">1,000.00</text></g><g transform="translate(275.51293275492867 637.0490383995689) rotate(0 108.83187866210938 8.664624248099699)"><text x="0" y="13.863693111641656" font-family="Helvetica, Segoe UI Emoji" font-size="15.068911735825345px" fill="#4e598c" text-anchor="start" style="white-space: pre;" direction="ltr" dominant-baseline="alphabetic">Pago con credito: 1,000.00 MXN</text></g><g transform="translate(65.25624862077234 382.515348570284) rotate(0 16.8984375 9.200000000000045)"><text x="0" y="14.720312499999999" font-family="Helvetica, Segoe UI Emoji" font-size="16px" fill="#4e588d" text-anchor="start" style="white-space: pre;" direction="ltr" dominant-baseline="alphabetic">Total</text></g><g stroke-linecap="round"><g transform="translate(64.11373407623182 414.50575581742214) rotate(0 102.82630900866002 -0.5712572722702589)"><path d="M0 0 C81.74 -0.45, 163.47 -0.91, 205.65 -1.14 M0 0 C63.45 -0.35, 126.91 -0.71, 205.65 -1.14" stroke="#4e588d" stroke-width="4" fill="none"></path></g></g><mask></mask><g transform="translate(66.2816137122636 438.9104286023089) rotate(0 64.03906250000011 9.200000000000045)"><text x="0" y="14.720312499999999" font-family="Helvetica, Segoe UI Emoji" font-size="16px" fill="#4e588d" text-anchor="start" style="white-space: pre;" direction="ltr" dominant-baseline="alphabetic">Credito disponible</text></g><g stroke-linecap="round"><g transform="translate(65.13909916772286 529.3466460644554) rotate(0 102.82630900866002 -0.5712572722704863)"><path d="M0 0 C57.26 -0.32, 114.51 -0.64, 205.65 -1.14 M0 0 C55.79 -0.31, 111.58 -0.62, 205.65 -1.14" stroke="#4e588d" stroke-width="4" fill="none"></path></g></g><mask></mask><g transform="translate(64.93630299110919 471.3397595131614) rotate(0 51.13671875 9.200000000000045)"><text x="0" y="14.720312499999999" font-family="Helvetica, Segoe UI Emoji" font-size="16px" fill="#4e588d" text-anchor="start" style="white-space: pre;" direction="ltr" dominant-baseline="alphabetic">Credito Usado</text></g><g transform="translate(68.01239826558344 501.0753471664102) rotate(0 56.91796875 9.200000000000045)"><text x="0" y="14.720312499999999" font-family="Helvetica, Segoe UI Emoji" font-size="16px" fill="#4e588d" text-anchor="start" style="white-space: pre;" direction="ltr" dominant-baseline="alphabetic">Credito restante</text></g><g stroke-linecap="round"><g transform="translate(360.808954360117 415.3705014769357) rotate(0 54.269440865681645 0.5712572722704863)"><path d="M0 0 C38.49 0.41, 76.99 0.81, 108.54 1.14 M0 0 C37.17 0.39, 74.33 0.78, 108.54 1.14" stroke="#4e588d" stroke-width="4" fill="none"></path></g></g><mask></mask><g stroke-linecap="round"><g transform="translate(359.783589268626 530.211391723969) rotate(0 54.269440865681645 0.5712572722704863)"><path d="M0 0 C42.39 0.45, 84.77 0.89, 108.54 1.14 M0 0 C30.62 0.32, 61.25 0.64, 108.54 1.14" stroke="#4e588d" stroke-width="4" fill="none"></path></g></g><mask></mask><g stroke-linecap="round"><g transform="translate(361.83431945160805 591.7332972134477) rotate(0 54.269440865681645 0.5712572722704863)"><path d="M0 0 C25.3 0.27, 50.61 0.53, 108.54 1.14 M0 0 C35.2 0.37, 70.39 0.74, 108.54 1.14" stroke="#4e588d" stroke-width="4" fill="none"></path></g></g><mask></mask><g transform="translate(362.7847755597402 379.0286154555174) rotate(0 51.140625 9.200000000000045)"><text x="0" y="14.720312499999999" font-family="Helvetica, Segoe UI Emoji" font-size="16px" fill="#4e588d" text-anchor="start" style="white-space: pre;" direction="ltr" dominant-baseline="alphabetic">1,000.00 MXN</text></g><g transform="translate(365.98850040878165 433.40125112798114) rotate(0 51.140625 9.200000000000045)"><text x="0" y="14.720312499999999" font-family="Helvetica, Segoe UI Emoji" font-size="16px" fill="#4e588d" text-anchor="start" style="white-space: pre;" direction="ltr" dominant-baseline="alphabetic">6,000.00 MXN</text></g><g transform="translate(367.0138655002727 468.2636642386874) rotate(0 51.140625 9.200000000000045)"><text x="0" y="14.720312499999999" font-family="Helvetica, Segoe UI Emoji" font-size="16px" fill="#4e588d" text-anchor="start" style="white-space: pre;" direction="ltr" dominant-baseline="alphabetic">1,000.00 MXN</text></g><g transform="translate(367.0138655002736 499.02461698342813) rotate(0 51.140625 9.200000000000045)"><text x="0" y="14.720312499999999" font-family="Helvetica, Segoe UI Emoji" font-size="16px" fill="#4e588d" text-anchor="start" style="white-space: pre;" direction="ltr" dominant-baseline="alphabetic">5,000.00 MXN</text></g><g transform="translate(69.44967851993715 550.957103538612) rotate(0 56.925781250000114 9.199999999999818)"><text x="0" y="14.720312499999999" font-family="Helvetica, Segoe UI Emoji" font-size="16px" fill="#4e588d" text-anchor="start" style="white-space: pre;" direction="ltr" dominant-baseline="alphabetic">Total Excedente</text></g><g transform="translate(370.7811634685934 553.8471759115214) rotate(0 35.5703125 9.199999999999818)"><text x="0" y="14.720312499999999" font-family="Helvetica, Segoe UI Emoji" font-size="16px" fill="#4e588d" text-anchor="start" style="white-space: pre;" direction="ltr" dominant-baseline="alphabetic">0.00 MXN</text></g></svg>