<svg version="1.1" xmlns="http://www.w3.org/2000/svg" viewBox="0 0 498.68265153832544 203.27486287255988" width="498.68265153832544" height="203.27486287255988">
  <!-- svg-source:excalidraw -->
  
  <defs>
    <style class="style-fonts">
      @font-face {
        font-family: "Virgil";
        src: url("https://excalidraw.com/Virgil.woff2");
      }
      @font-face {
        font-family: "Cascadia";
        src: url("https://excalidraw.com/Cascadia.woff2");
      }
      @font-face {
        font-family: "Assistant";
        src: url("https://excalidraw.com/Assistant-Regular.woff2");
      }
    </style>
    
  </defs>
  <rect x="0" y="0" width="498.68265153832544" height="203.27486287255988" fill="#ffffff"></rect><g stroke-linecap="round" transform="translate(10 69.08441941251976) rotate(0 239.235079068372 62.09522173002006)"><path d="M0 0 L478.47 0 L478.47 124.19 L0 124.19" stroke="none" stroke-width="0" fill="#f5f5f5"></path><path d="M0 0 C171.03 0, 342.05 0, 478.47 0 M0 0 C114.74 0, 229.48 0, 478.47 0 M478.47 0 C478.47 44.83, 478.47 89.65, 478.47 124.19 M478.47 0 C478.47 46.84, 478.47 93.67, 478.47 124.19 M478.47 124.19 C367.9 124.19, 257.32 124.19, 0 124.19 M478.47 124.19 C366.08 124.19, 253.69 124.19, 0 124.19 M0 124.19 C0 89.35, 0 54.5, 0 0 M0 124.19 C0 93.22, 0 62.25, 0 0" stroke="#4e588d" stroke-width="4" fill="none"></path></g><g stroke-linecap="round" transform="translate(10.212493401581696 69.91270357528765) rotate(0 239.23507906837187 29.36285678706372)"><path d="M0 0 L478.47 0 L478.47 58.73 L0 58.73" stroke="none" stroke-width="0" fill="#f5f5f5"></path><path d="M0 0 C147.58 0, 295.16 0, 478.47 0 M0 0 C174.83 0, 349.67 0, 478.47 0 M478.47 0 C478.47 12.01, 478.47 24.02, 478.47 58.73 M478.47 0 C478.47 18.47, 478.47 36.93, 478.47 58.73 M478.47 58.73 C339.28 58.73, 200.09 58.73, 0 58.73 M478.47 58.73 C350.82 58.73, 223.17 58.73, 0 58.73 M0 58.73 C0 35.96, 0 13.2, 0 0 M0 58.73 C0 36.07, 0 13.41, 0 0" stroke="#4e588d" stroke-width="4" fill="none"></path></g><g transform="translate(16.304378324543222 10) rotate(0 127.05214191606808 16.849665219929193)"><text x="0" y="26.960036691058672" font-family="Helvetica, Segoe UI Emoji" font-size="29.30376559987696px" fill="#4e588d" text-anchor="start" style="white-space: pre;" direction="ltr" dominant-baseline="alphabetic">Envio o recoleccion</text></g><g transform="translate(31.603708764401517 80.12193118268306) rotate(0 36.585993393179706 16.819701666917126)"><text x="0" y="26.91209398845566" font-family="Helvetica, Segoe UI Emoji" font-size="29.251655072899478px" fill="#4e588d" text-anchor="start" style="white-space: pre;" direction="ltr" dominant-baseline="alphabetic">Envio</text></g><g transform="translate(29.441208860903316 142.34877012170136) rotate(0 83.72955322265625 16.819701666917126)"><text x="0" y="26.91209398845566" font-family="Helvetica, Segoe UI Emoji" font-size="29.251655072899478px" fill="#4e588d" text-anchor="start" style="white-space: pre;" direction="ltr" dominant-baseline="alphabetic">Recoleccion </text></g><g stroke-linecap="round" transform="translate(442.7732143355911 152.7937507720103) rotate(0 10.837025728232675 8.924609423250558)"><path d="M21.67 8.92 C21.67 9.44, 21.62 9.97, 21.51 10.47 C21.4 10.98, 21.24 11.49, 21.02 11.98 C20.81 12.46, 20.54 12.94, 20.22 13.39 C19.91 13.83, 19.54 14.27, 19.14 14.66 C18.74 15.06, 18.28 15.43, 17.8 15.76 C17.32 16.09, 16.8 16.4, 16.26 16.65 C15.71 16.91, 15.13 17.13, 14.54 17.31 C13.95 17.49, 13.34 17.62, 12.72 17.71 C12.1 17.8, 11.46 17.85, 10.84 17.85 C10.21 17.85, 9.57 17.8, 8.96 17.71 C8.34 17.62, 7.72 17.49, 7.13 17.31 C6.54 17.13, 5.96 16.91, 5.42 16.65 C4.88 16.4, 4.35 16.09, 3.87 15.76 C3.39 15.43, 2.94 15.06, 2.54 14.66 C2.13 14.27, 1.77 13.83, 1.45 13.39 C1.14 12.94, 0.87 12.46, 0.65 11.98 C0.44 11.49, 0.27 10.98, 0.16 10.47 C0.06 9.97, 0 9.44, 0 8.92 C0 8.41, 0.06 7.88, 0.16 7.37 C0.27 6.87, 0.44 6.36, 0.65 5.87 C0.87 5.39, 1.14 4.91, 1.45 4.46 C1.77 4.01, 2.13 3.58, 2.54 3.19 C2.94 2.79, 3.39 2.42, 3.87 2.09 C4.35 1.76, 4.88 1.45, 5.42 1.2 C5.96 0.94, 6.54 0.71, 7.13 0.54 C7.72 0.36, 8.34 0.23, 8.96 0.14 C9.57 0.05, 10.21 0, 10.84 0 C11.46 0, 12.1 0.05, 12.72 0.14 C13.34 0.23, 13.95 0.36, 14.54 0.54 C15.13 0.71, 15.71 0.94, 16.26 1.2 C16.8 1.45, 17.32 1.76, 17.8 2.09 C18.28 2.42, 18.74 2.79, 19.14 3.19 C19.54 3.58, 19.91 4.01, 20.22 4.46 C20.54 4.91, 20.81 5.39, 21.02 5.87 C21.24 6.36, 21.4 6.87, 21.51 7.37 C21.62 7.88, 21.65 8.67, 21.67 8.92 C21.7 9.18, 21.7 8.67, 21.67 8.92" stroke="none" stroke-width="0" fill="#4e598c"></path><path d="M21.67 8.92 C21.67 9.44, 21.62 9.97, 21.51 10.47 C21.4 10.98, 21.24 11.49, 21.02 11.98 C20.81 12.46, 20.54 12.94, 20.22 13.39 C19.91 13.83, 19.54 14.27, 19.14 14.66 C18.74 15.06, 18.28 15.43, 17.8 15.76 C17.32 16.09, 16.8 16.4, 16.26 16.65 C15.71 16.91, 15.13 17.13, 14.54 17.31 C13.95 17.49, 13.34 17.62, 12.72 17.71 C12.1 17.8, 11.46 17.85, 10.84 17.85 C10.21 17.85, 9.57 17.8, 8.96 17.71 C8.34 17.62, 7.72 17.49, 7.13 17.31 C6.54 17.13, 5.96 16.91, 5.42 16.65 C4.88 16.4, 4.35 16.09, 3.87 15.76 C3.39 15.43, 2.94 15.06, 2.54 14.66 C2.13 14.27, 1.77 13.83, 1.45 13.39 C1.14 12.94, 0.87 12.46, 0.65 11.98 C0.44 11.49, 0.27 10.98, 0.16 10.47 C0.06 9.97, 0 9.44, 0 8.92 C0 8.41, 0.06 7.88, 0.16 7.37 C0.27 6.87, 0.44 6.36, 0.65 5.87 C0.87 5.39, 1.14 4.91, 1.45 4.46 C1.77 4.01, 2.13 3.58, 2.54 3.19 C2.94 2.79, 3.39 2.42, 3.87 2.09 C4.35 1.76, 4.88 1.45, 5.42 1.2 C5.96 0.94, 6.54 0.71, 7.13 0.54 C7.72 0.36, 8.34 0.23, 8.96 0.14 C9.57 0.05, 10.21 0, 10.84 0 C11.46 0, 12.1 0.05, 12.72 0.14 C13.34 0.23, 13.95 0.36, 14.54 0.54 C15.13 0.71, 15.71 0.94, 16.26 1.2 C16.8 1.45, 17.32 1.76, 17.8 2.09 C18.28 2.42, 18.74 2.79, 19.14 3.19 C19.54 3.58, 19.91 4.01, 20.22 4.46 C20.54 4.91, 20.81 5.39, 21.02 5.87 C21.24 6.36, 21.4 6.87, 21.51 7.37 C21.62 7.88, 21.65 8.67, 21.67 8.92 C21.7 9.18, 21.7 8.67, 21.67 8.92" stroke="#4e588d" stroke-width="4" fill="none"></path></g><g transform="translate(317.1912103084219 89.04654060593475) rotate(0 49.140625 9.200000000000045)"><text x="0" y="14.720312499999999" font-family="Helvetica, Segoe UI Emoji" font-size="16px" fill="#4e588d" text-anchor="start" style="white-space: pre;" direction="ltr" dominant-baseline="alphabetic">+100.00 MXN</text></g><g transform="translate(322.87318605124756 153.79330439858268) rotate(0 40.2421875 9.200000000000045)"><text x="0" y="14.720312499999999" font-family="Helvetica, Segoe UI Emoji" font-size="16px" fill="#4e588d" text-anchor="start" style="white-space: pre;" direction="ltr" dominant-baseline="alphabetic">+0.00 MXN</text></g><g stroke-linecap="round" transform="translate(444.04815853891296 90.32148480925662) rotate(0 10.837025728232675 8.924609423250558)"><path d="M21.67 8.92 C21.67 9.44, 21.62 9.97, 21.51 10.47 C21.4 10.98, 21.24 11.49, 21.02 11.98 C20.81 12.46, 20.54 12.94, 20.22 13.39 C19.91 13.83, 19.54 14.27, 19.14 14.66 C18.74 15.06, 18.28 15.43, 17.8 15.76 C17.32 16.09, 16.8 16.4, 16.26 16.65 C15.71 16.91, 15.13 17.13, 14.54 17.31 C13.95 17.49, 13.34 17.62, 12.72 17.71 C12.1 17.8, 11.46 17.85, 10.84 17.85 C10.21 17.85, 9.57 17.8, 8.96 17.71 C8.34 17.62, 7.72 17.49, 7.13 17.31 C6.54 17.13, 5.96 16.91, 5.42 16.65 C4.88 16.4, 4.35 16.09, 3.87 15.76 C3.39 15.43, 2.94 15.06, 2.54 14.66 C2.13 14.27, 1.77 13.83, 1.45 13.39 C1.14 12.94, 0.87 12.46, 0.65 11.98 C0.44 11.49, 0.27 10.98, 0.16 10.47 C0.06 9.97, 0 9.44, 0 8.92 C0 8.41, 0.06 7.88, 0.16 7.37 C0.27 6.87, 0.44 6.36, 0.65 5.87 C0.87 5.39, 1.14 4.91, 1.45 4.46 C1.77 4.01, 2.13 3.58, 2.54 3.19 C2.94 2.79, 3.39 2.42, 3.87 2.09 C4.35 1.76, 4.88 1.45, 5.42 1.2 C5.96 0.94, 6.54 0.71, 7.13 0.54 C7.72 0.36, 8.34 0.23, 8.96 0.14 C9.57 0.05, 10.21 0, 10.84 0 C11.46 0, 12.1 0.05, 12.72 0.14 C13.34 0.23, 13.95 0.36, 14.54 0.54 C15.13 0.71, 15.71 0.94, 16.26 1.2 C16.8 1.45, 17.32 1.76, 17.8 2.09 C18.28 2.42, 18.74 2.79, 19.14 3.19 C19.54 3.58, 19.91 4.01, 20.22 4.46 C20.54 4.91, 20.81 5.39, 21.02 5.87 C21.24 6.36, 21.4 6.87, 21.51 7.37 C21.62 7.88, 21.65 8.67, 21.67 8.92 C21.7 9.18, 21.7 8.67, 21.67 8.92" stroke="none" stroke-width="0" fill="#f5f5f5"></path><path d="M21.67 8.92 C21.67 9.44, 21.62 9.97, 21.51 10.47 C21.4 10.98, 21.24 11.49, 21.02 11.98 C20.81 12.46, 20.54 12.94, 20.22 13.39 C19.91 13.83, 19.54 14.27, 19.14 14.66 C18.74 15.06, 18.28 15.43, 17.8 15.76 C17.32 16.09, 16.8 16.4, 16.26 16.65 C15.71 16.91, 15.13 17.13, 14.54 17.31 C13.95 17.49, 13.34 17.62, 12.72 17.71 C12.1 17.8, 11.46 17.85, 10.84 17.85 C10.21 17.85, 9.57 17.8, 8.96 17.71 C8.34 17.62, 7.72 17.49, 7.13 17.31 C6.54 17.13, 5.96 16.91, 5.42 16.65 C4.88 16.4, 4.35 16.09, 3.87 15.76 C3.39 15.43, 2.94 15.06, 2.54 14.66 C2.13 14.27, 1.77 13.83, 1.45 13.39 C1.14 12.94, 0.87 12.46, 0.65 11.98 C0.44 11.49, 0.27 10.98, 0.16 10.47 C0.06 9.97, 0 9.44, 0 8.92 C0 8.41, 0.06 7.88, 0.16 7.37 C0.27 6.87, 0.44 6.36, 0.65 5.87 C0.87 5.39, 1.14 4.91, 1.45 4.46 C1.77 4.01, 2.13 3.58, 2.54 3.19 C2.94 2.79, 3.39 2.42, 3.87 2.09 C4.35 1.76, 4.88 1.45, 5.42 1.2 C5.96 0.94, 6.54 0.71, 7.13 0.54 C7.72 0.36, 8.34 0.23, 8.96 0.14 C9.57 0.05, 10.21 0, 10.84 0 C11.46 0, 12.1 0.05, 12.72 0.14 C13.34 0.23, 13.95 0.36, 14.54 0.54 C15.13 0.71, 15.71 0.94, 16.26 1.2 C16.8 1.45, 17.32 1.76, 17.8 2.09 C18.28 2.42, 18.74 2.79, 19.14 3.19 C19.54 3.58, 19.91 4.01, 20.22 4.46 C20.54 4.91, 20.81 5.39, 21.02 5.87 C21.24 6.36, 21.4 6.87, 21.51 7.37 C21.62 7.88, 21.65 8.67, 21.67 8.92 C21.7 9.18, 21.7 8.67, 21.67 8.92" stroke="#4e588d" stroke-width="4" fill="none"></path></g><g transform="translate(396.6325682657048 192.0464417544772) rotate(0 0.00005000000010113581 0.00005000000010113581)" stroke="none"><path fill="#4e588d" d="M 6.28,-6.28 Q 6.28,-6.28 7.11,-5.11 7.95,-3.94 8.37,-2.57 8.80,-1.19 8.76,0.23 8.72,1.67 8.22,3.02 7.73,4.37 6.83,5.49 5.93,6.61 4.72,7.38 3.50,8.15 2.11,8.50 0.72,8.85 -0.71,8.73 -2.14,8.61 -3.46,8.05 -4.78,7.48 -5.85,6.52 -6.92,5.56 -7.63,4.31 -8.33,3.06 -8.60,1.65 -8.87,0.23 -8.68,-1.18 -8.49,-2.60 -7.85,-3.89 -7.21,-5.18 -6.19,-6.19 -5.18,-7.21 -3.89,-7.85 -2.60,-8.49 -1.18,-8.68 0.24,-8.87 1.65,-8.60 3.06,-8.33 4.31,-7.62 5.56,-6.92 6.52,-5.85 7.48,-4.78 8.05,-3.46 8.62,-2.14 8.73,-0.70 8.85,0.72 8.50,2.11 8.15,3.51 7.38,4.72 6.61,5.93 5.48,6.83 4.36,7.73 3.02,8.22 1.67,8.72 0.23,8.76 -1.20,8.80 -2.57,8.37 -3.94,7.95 -5.11,7.11 -6.28,6.27 -6.28,6.27 -6.28,6.28 -6.94,5.43 -7.60,4.59 -8.04,3.61 -8.48,2.64 -8.67,1.58 -8.86,0.53 -8.80,-0.53 -8.73,-1.60 -8.41,-2.62 -8.09,-3.64 -7.54,-4.56 -6.99,-5.47 -6.23,-6.23 -5.47,-6.99 -4.56,-7.54 -3.64,-8.10 -2.62,-8.41 -1.60,-8.73 -0.53,-8.80 0.53,-8.86 1.59,-8.67 2.64,-8.48 3.61,-8.04 4.59,-7.60 5.43,-6.94 6.28,-6.28 6.28,-6.28 L 6.28,-6.28 Z"></path></g></svg>